<?xml version="1.0" encoding="UTF-8"?>
<svg id="Layer_1" xmlns="http://www.w3.org/2000/svg" version="1.1" xmlns:xlink="http://www.w3.org/1999/xlink" viewBox="0 0 595.28 250.95">
  <!-- Generator: Adobe Illustrator 29.8.3, SVG Export Plug-In . SVG Version: 2.1.1 Build 3)  -->
  <defs>
    <style>
      .st0 {
        fill: url(#linear-gradient2);
      }

      .st1 {
        fill: url(#linear-gradient1);
      }

      .st2 {
        fill: #fcfbfb;
      }

      .st3 {
        fill: url(#linear-gradient);
      }
    </style>
    <linearGradient id="linear-gradient" x1="371.7" y1="213.67" x2="517.18" y2="287.13" gradientUnits="userSpaceOnUse">
      <stop offset="0" stop-color="#c6d92c"/>
      <stop offset="1" stop-color="#128642"/>
    </linearGradient>
    <linearGradient id="linear-gradient1" x1="395.43" y1="166.66" x2="540.91" y2="240.12" xlink:href="#linear-gradient"/>
    <linearGradient id="linear-gradient2" x1="412.75" y1="132.37" x2="558.23" y2="205.83" xlink:href="#linear-gradient"/>
  </defs>
  <circle class="st3" cx="400.66" cy="228.3" r="10.17"/>
  <g>
    <path class="st1" d="M516.21,174.6l-3.32,8.67c-.32.83-1.1,1.35-2.02,1.35h-50.84c-.92,0-1.7.53-2.02,1.35l-13.62,35.59c-.61,1.59.74,3.44,2.5,3.44h46.2c1.77,0,3.11,1.85,2.5,3.44l-3.32,8.67c-.32.83-1.1,1.35-2.02,1.35h-61.98c-1.77,0-3.11-1.85-2.5-3.44l23.92-62.51c.32-.83,1.1-1.35,2.02-1.35h61.98c1.77,0,3.11,1.85,2.5,3.44ZM500.57,211.54h-31.69c-1.77,0-3.11-1.85-2.5-3.44l3.32-8.67c.32-.83,1.1-1.35,2.02-1.35h31.7c1.77,0,3.11,1.85,2.5,3.44l-3.32,8.67c-.32.83-1.1,1.35-2.02,1.35Z"/>
    <path class="st0" d="M523.17,171.16h10.36c1.33,0,2.51,1.08,2.64,2.41l2.9,30.3c.21,2.16,2.95,3.23,4.29,1.67l28.97-33.65c.4-.47,1-.74,1.65-.74h8.5c2.11,0,3.45,2.53,2.14,4.06l-53.48,62.27c-1.34,1.56-4.09.49-4.29-1.68l-5.82-62.27c-.12-1.32.84-2.38,2.16-2.38Z"/>
  </g>
  <path class="st2" d="M307.25,12.48h-40.61c-22.06,0-41.83,13.61-49.71,34.21l-48.86,127.71c-4.47,11.68-15.68,19.4-28.19,19.4h-22.38c-37.56,0-68.9-30.73-68.92-68.29-.02-37.69,30.64-68.36,68.32-68.36h78.96l17.06-44.67h-96.02C54.51,12.48,3.93,63.07,3.93,125.48h0c0,62.4,50.59,112.99,112.99,112.99h40.72c22.06,0,41.83-13.61,49.71-34.21l48.86-127.71c4.47-11.68,15.68-19.4,28.19-19.4h22.27c37.56,0,68.9,30.73,68.92,68.29.02,37.69-30.64,68.36-68.32,68.36h-78.81l-17.09,44.67h95.9c62.4,0,112.99-50.59,112.99-112.99h0c0-62.4-50.59-112.99-112.99-112.99Z"/>
</svg>